<?xml version="1.0" encoding="UTF-8"?>
<svg id="Layer_1" data-name="Layer 1" xmlns="http://www.w3.org/2000/svg" viewBox="0 0 971.38 200.93">
  <defs>
    <style>
      .cls-1, .cls-2 {
        stroke-width: 0px;
      }

      .cls-2 {
        fill: #fff;
      }
    </style>
  </defs>
  <rect class="cls-1" x="467.07" width="504.31" height="200.93"/>
  <g>
    <path class="cls-1" d="m83.1,65.48c-4.95-1.8-12.45-3.15-19.35-3.15-31.05,0-51.3,21.45-51.3,51.15s20.4,49.35,53.4,49.35c6.45,0,12.75-1.05,17.1-2.7l.15,3.3c-5.1,1.65-11.85,2.25-17.7,2.25-34.2,0-56.1-22.65-56.1-52.35s21.6-53.85,55.05-53.85c6.6,0,14.25,1.2,19.2,2.7l-.45,3.3Z"/>
    <path class="cls-1" d="m160.2,127.13c0,23.25-12.6,39.15-32.55,39.15s-32.55-15.3-32.55-39.15,12.3-39.3,32.55-39.3,32.55,15.45,32.55,39.3Zm-3.15,0c0-21.75-11.7-36.45-29.4-36.45s-29.4,14.4-29.4,36.45,11.7,36.3,29.4,36.3,29.4-14.25,29.4-36.3Z"/>
    <path class="cls-1" d="m237.15,144.08c-3.15,10.2-12.6,22.2-27.9,22.2-21.15,0-30.75-17.85-30.75-37.8,0-23.25,10.95-40.65,31.2-40.65,15.75,0,24.15,10.8,27.75,21h.3c-.3-6.3-.45-15-.45-22.5v-34.8h3v90.3c0,8.1.15,16.65.9,23.1h-3c-.45-5.7-.75-16.05-.75-20.85h-.3Zm-55.5-15.9c0,18.75,9.15,35.25,27.75,35.25,14.4,0,28.2-13.65,28.2-36.15s-11.7-36.6-27.9-36.6-28.05,12.9-28.05,37.5Z"/>
    <path class="cls-1" d="m272.55,67.28h-5.1v-7.05h5.1v7.05Zm-1.05,97.65h-3v-75.75h3v75.75Z"/>
    <path class="cls-1" d="m302.85,107.18c4.2-11.55,14.7-19.35,27.9-19.35,17.55,0,23.7,12.75,23.7,31.65v45.45h-3v-44.4c0-19.35-5.85-29.85-21-29.85-9.45,0-18.15,4.65-23.1,12.45-4.05,6.45-4.65,9.45-4.65,20.7v41.1h-3v-52.35c0-8.1-.15-16.95-.75-23.4h3c.3,4.5.6,13.65.6,18h.3Z"/>
    <path class="cls-1" d="m435.89,143.63c-3.15,10.2-12.9,21.3-28.2,21.3-21.15,0-30.75-17.1-30.75-37.05,0-23.25,10.95-40.05,31.2-40.05,15.75,0,24.15,10.8,27.75,21h.3c-.3-4.8-.45-15.75-.45-19.65h3v70.65c0,24.3-12.15,38.4-34.8,38.4-8.25,0-18.15-2.1-23.1-4.8l.45-3.45c5.55,3.3,15.75,5.25,22.65,5.25,22.95,0,31.8-15.45,31.8-36.3,0-3.45.15-10.8.45-15.3h-.3Zm-55.8-16.05c0,18.75,9.15,34.5,27.75,34.5,14.4,0,28.2-12.3,28.2-34.8s-11.7-36.6-27.9-36.6-28.05,12.3-28.05,36.9Z"/>
    <path class="cls-2" d="m523.19,60.23c35.25,0,61.95,14.7,61.95,52.65s-28.2,52.05-61.95,52.05h-22.05V60.23h22.05Zm-9.15,93.75h7.8c29.55,0,49.95-11.25,49.95-41.25,0-31.95-21-41.55-49.95-41.55h-7.8v82.8Z"/>
    <path class="cls-2" d="m613.79,129.38c.3,16.8,10.95,27,27.3,27,8.25,0,14.85-1.95,21.6-5.55l.45,11.25c-6.75,3-14.1,4.5-22.65,4.5-25.05,0-39.15-15.3-39.15-40.35s14.4-39.3,35.55-39.3c19.65,0,31.8,12.15,31.8,37.2,0,1.35-.15,3.6-.3,5.25h-54.6Zm42.9-9.45c0-15.9-7.95-23.55-20.1-23.55s-21.3,8.4-22.5,23.55h42.6Z"/>
    <path class="cls-2" d="m683.39,151.73c6,3.3,12.3,4.95,18.9,4.95,8.4,0,15.45-4.05,15.45-11.85,0-6.75-4.2-9.75-16.5-15.3-12-5.4-18-10.5-18-21,0-13.65,10.95-21.6,25.8-21.6,6.45,0,12.75,1.2,17.55,3.15l-1.05,10.35c-5.55-2.7-10.8-3.75-16.35-3.75-7.65,0-13.95,3.75-13.95,10.95,0,6.6,4.8,9.6,15.15,13.8,13.95,5.55,19.65,12.15,19.65,22.35,0,15.3-12,22.8-27,22.8-7.8,0-14.25-1.2-20.7-3.75l1.05-11.1Z"/>
    <path class="cls-2" d="m762.74,72.98h-13.8v-14.1h13.8v14.1Zm-.75,91.95h-12.3v-76.35h12.3v76.35Z"/>
    <path class="cls-2" d="m853.19,88.58v72.75c0,20.85-10.65,36.9-36.6,36.9-10.05,0-18.75-1.5-27.9-5.1l1.2-12.15c8.85,4.8,17.25,6.9,26.25,6.9,18.45,0,25.35-11.25,25.35-28.2,0-2.7,0-6.6.3-9.6h-.3c-4.65,8.4-13.05,14.85-25.5,14.85-20.1,0-33.3-15.3-33.3-37.95s13.65-40.05,34.2-40.05c12.15,0,20.4,5.85,25.05,14.1h.3c-.3-4.8-.3-8.55-.3-12.45h11.25Zm-57.6,38.1c0,16.95,8.7,28.35,22.35,28.35s23.4-12,23.4-28.65-9.45-29.4-23.25-29.4-22.5,12.6-22.5,29.7Z"/>
    <path class="cls-2" d="m891.59,101.78c5.55-9.15,14.4-14.85,25.95-14.85,21.15,0,27.6,14.25,27.6,34.2v43.8h-12.3v-39c0-17.4-2.85-28.8-18.15-28.8-13.2,0-22.8,9.3-22.8,30.45v37.35h-12.3v-53.55c0-8.1-.15-16.35-.75-22.8h11.85c.3,3.6.6,9.15.6,13.2h.3Z"/>
  </g>
</svg>